<svg xmlns="http://www.w3.org/2000/svg" width="314.05" height="206.74" viewBox="0 0 314.05 206.74">
  <defs>
    <style>
      .cls-1 {
        fill: #fff;
        opacity:0.1;
      }
    </style>
  </defs>
  <g id="Layer_2" data-name="Layer 2">
    <g id="Layer_1-2" data-name="Layer 1">
      <g>
        <path class="cls-1" d="M49.68,141.34a1.83,1.83,0,0,1-1.32-.55,1.85,1.85,0,0,1,0-2.63l72.35-71.9a1.86,1.86,0,0,1,2.63,2.64L51,140.8A1.86,1.86,0,0,1,49.68,141.34Z"/>
        <path class="cls-1" d="M96,206.74a1.87,1.87,0,0,1-1.31-3.19L167,131.65a1.87,1.87,0,0,1,2.63,2.65L97.26,206.2A1.84,1.84,0,0,1,96,206.74Z"/>
        <path class="cls-1" d="M76.71,182.38a.58.58,0,0,1-.41-.17.57.57,0,0,1,0-.82l27.76-27.59a.58.58,0,0,1,.82,0,.57.57,0,0,1,0,.82L77.12,182.21A.58.58,0,0,1,76.71,182.38Z"/>
        <path class="cls-1" d="M167.41,78.88a3.46,3.46,0,0,1-2.47-1,3.5,3.5,0,0,1,0-4.94L237.31,1a3.49,3.49,0,0,1,4.92,5l-72.35,71.9A3.54,3.54,0,0,1,167.41,78.88Z"/>
        <path class="cls-1" d="M314.05,132.08l-42.2,42a2.33,2.33,0,1,0,3.28,3.3l38.92-38.76Z"/>
        <path class="cls-1" d="M314.05,46.55l-28,27.81a.81.81,0,0,0,0,1.15.82.82,0,0,0,.58.24.8.8,0,0,0,.57-.24l26.84-26.66Z"/>
        <path class="cls-1" d="M45.38,2.46a.81.81,0,0,0-1.15,0L0,46.41v2.3L45.38,3.61A.81.81,0,0,0,45.38,2.46Z"/>
        <path class="cls-1" d="M53.74,81.71a2.33,2.33,0,0,0-3.29,0L0,131.83v6.57L53.73,85A2.34,2.34,0,0,0,53.74,81.71Z"/>
      </g>
    </g>
  </g>
</svg>
